<svg width="50" height="50" viewBox="0 0 50 50" fill="none" xmlns="http://www.w3.org/2000/svg">
<path d="M36.7178 14.8437C36.7504 14.8436 36.783 14.8416 36.8154 14.8375C38.133 14.6729 40.6248 13.6363 40.6248 10.894C40.6248 10.0522 40.9902 9.43888 41.7421 9.01828C42.1479 8.79843 42.59 8.65322 43.0472 8.58957C43.2517 8.5671 43.4391 8.46484 43.5687 8.305C43.6983 8.14516 43.7596 7.94065 43.7393 7.73589C43.719 7.53112 43.6187 7.34263 43.4602 7.21136C43.3018 7.08009 43.0979 7.01664 42.893 7.03478C41.5681 7.16369 39.0625 8.13596 39.0625 10.8941C39.0625 11.7437 38.6923 12.3734 37.9306 12.8201C37.5253 13.0515 37.0823 13.2096 36.6221 13.2872C36.4249 13.3119 36.2446 13.4108 36.1178 13.5637C35.991 13.7166 35.9271 13.9121 35.9393 14.1104C35.9515 14.3087 36.0388 14.4949 36.1834 14.6311C36.328 14.7673 36.5191 14.8433 36.7178 14.8437Z" fill="black"/>
<path d="M1.5675 20.3622C1.57015 20.4045 1.57629 20.4466 1.58586 20.488L3.90139 30.5369L2.91926 48.3948C2.91343 48.5008 2.92929 48.6069 2.96586 48.7066C3.00243 48.8064 3.05894 48.8976 3.13195 48.9747C3.20496 49.0518 3.29293 49.1133 3.39049 49.1552C3.48804 49.1972 3.59313 49.2189 3.69934 49.2189H46.3007C46.4069 49.2189 46.512 49.1972 46.6096 49.1552C46.7071 49.1133 46.7951 49.0518 46.8681 48.9747C46.9411 48.8976 46.9976 48.8064 47.0342 48.7066C47.0708 48.6069 47.0866 48.5008 47.0808 48.3948L46.0987 30.5365L48.4142 20.4876C48.4238 20.4463 48.4299 20.4042 48.4325 20.3618C48.4638 19.907 48.3609 19.4531 48.1366 19.0563C47.9124 18.6595 47.5766 18.3372 47.1709 18.1294C47.0752 18.0795 46.9764 18.0359 46.875 17.9987V7.81264C46.8754 6.19968 46.321 4.63566 45.305 3.38293C44.289 2.1302 42.8731 1.26496 41.2948 0.932351C39.7165 0.599739 38.0718 0.819987 36.6367 1.55615C35.2015 2.29231 34.0631 3.49961 33.4125 4.97553C32.364 4.32014 31.1613 3.95278 29.9255 3.9105C28.6897 3.86822 27.4647 4.15251 26.3738 4.73471C25.5569 3.80456 24.5088 3.10663 23.3356 2.71152C22.1624 2.31641 20.9056 2.23812 19.6924 2.48458C18.4792 2.73104 17.3526 3.29351 16.4266 4.11509C15.5005 4.93667 14.8078 5.98823 14.4186 7.16342C14.0476 7.07469 13.6674 7.03037 13.286 7.03139C12.7642 7.02848 12.2455 7.11197 11.751 7.27846L13.2537 1.76821C13.2853 1.65231 13.2898 1.53069 13.2668 1.41279C13.2437 1.2949 13.1938 1.1839 13.1209 1.08843C13.048 0.992967 12.954 0.9156 12.8463 0.862348C12.7387 0.809096 12.6201 0.781393 12.5 0.781391H8.59377C8.42233 0.781422 8.25565 0.837849 8.11944 0.941972C7.98324 1.04609 7.88507 1.19213 7.84006 1.35756L7.10227 4.06264L7.00373 3.70131C6.95873 3.53588 6.86056 3.38984 6.72435 3.28572C6.58814 3.1816 6.42147 3.12517 6.25002 3.12514H2.34377C2.2237 3.12516 2.10525 3.15286 1.99761 3.20609C1.88998 3.25931 1.79606 3.33663 1.72316 3.43203C1.65025 3.52744 1.60032 3.63837 1.57724 3.7562C1.55415 3.87404 1.55854 3.99561 1.59006 4.11147L3.8218 12.2951C3.28156 13.9054 2.93069 16.0065 3.24778 17.9579C3.10328 18.0022 2.96315 18.0597 2.82912 18.1296C2.42342 18.3374 2.08762 18.6598 1.86335 19.0566C1.63909 19.4535 1.53622 19.9074 1.5675 20.3622ZM34.375 7.81264C34.375 6.36224 34.9512 4.97124 35.9768 3.94565C37.0024 2.92006 38.3934 2.34389 39.8438 2.34389C41.2942 2.34389 42.6852 2.92006 43.7108 3.94565C44.7364 4.97124 45.3125 6.36224 45.3125 7.81264V17.9681C45.0437 18.0573 44.7925 18.1928 44.5703 18.3685C44.4109 18.4942 44.2111 18.5575 44.0084 18.5465C43.8057 18.5356 43.6139 18.4513 43.4689 18.3092L42.4593 17.3146C42.0099 16.8755 41.4066 16.6297 40.7783 16.6297C40.15 16.6297 39.5467 16.8755 39.0973 17.3146L38.2071 18.1918C38.0508 18.3444 37.8411 18.4299 37.6227 18.4299C37.4043 18.4299 37.1945 18.3444 37.0383 18.1918L36.148 17.3146C35.9147 17.0859 35.637 16.9076 35.3321 16.7905C35.0271 16.6734 34.7014 16.6202 34.375 16.634V7.81264ZM21.0938 3.90639C21.9668 3.90785 22.8268 4.11774 23.6023 4.5186C24.3778 4.91947 25.0464 5.49971 25.5525 6.21108C25.6707 6.37728 25.8493 6.49065 26.05 6.52694C26.2507 6.56324 26.4577 6.51959 26.6267 6.40532C27.5624 5.77376 28.6706 5.44721 29.7993 5.47044C30.928 5.49368 32.0218 5.86557 32.9308 6.5351C32.8525 6.95645 32.8129 7.38408 32.8125 7.81264V13.2794C31.3999 12.2208 29.6703 11.6719 27.9058 11.7222C26.1412 11.7725 24.4457 12.4191 23.0957 13.5565C22.9428 12.8876 22.7378 12.2318 22.4827 11.5949C21.9168 10.2007 21.1 9.38862 20.055 9.1812C19.1051 8.99262 18.2222 9.36401 17.6006 9.75629C17.1889 8.96966 16.5908 8.29588 15.8585 7.79389C16.1992 6.67034 16.8919 5.68601 17.8345 4.98607C18.7771 4.28613 19.9197 3.90763 21.0938 3.90639ZM32.8125 15.3999V17.2911C32.8039 17.2993 32.7946 17.3062 32.7861 17.3146L31.8957 18.1918C31.7395 18.3444 31.5297 18.4299 31.3113 18.4299C31.0929 18.4299 30.8832 18.3444 30.727 18.1918L29.8366 17.3146C29.3873 16.8755 28.7839 16.6297 28.1557 16.6297C27.5274 16.6297 26.9241 16.8755 26.4747 17.3146L25.5844 18.1918C25.4282 18.3444 25.2184 18.4299 25 18.4299C24.7816 18.4299 24.5719 18.3444 24.4156 18.1918L23.5254 17.3146C23.2486 17.0419 22.9089 16.8415 22.5364 16.7311C22.9947 15.8164 23.6706 15.0281 24.5048 14.4357C25.339 13.8432 26.3058 13.4647 27.3205 13.3332C28.3352 13.2018 29.3666 13.3215 30.3242 13.6819C31.2818 14.0422 32.1362 14.6322 32.8125 15.3999ZM9.19045 2.34389H11.4772L9.76907 8.60698C9.45454 8.9558 9.18369 9.34165 8.96252 9.756C8.84953 9.68471 8.72756 9.61411 8.59836 9.54741L7.91213 7.03139L9.19045 2.34389ZM8.73508 11.5536C8.83152 11.6516 8.95213 11.7224 9.0847 11.7588C9.21727 11.7953 9.35712 11.7961 9.49012 11.7613C9.62312 11.7264 9.74456 11.657 9.84216 11.5602C9.93977 11.4633 10.0101 11.3424 10.046 11.2097C10.0531 11.1836 10.7831 8.59389 13.286 8.59389C15.7554 8.59389 16.4875 11.106 16.5165 11.2097C16.5525 11.3424 16.6228 11.4633 16.7204 11.5602C16.818 11.657 16.9394 11.7264 17.0724 11.7613C17.2054 11.7961 17.3453 11.7953 17.4778 11.7588C17.6104 11.7224 17.731 11.6516 17.8275 11.5536C18.0883 11.2885 19.0014 10.5648 19.7504 10.7137C20.2469 10.8122 20.6789 11.3064 21.0346 12.1825C21.3934 13.0824 21.6416 14.0226 21.7737 14.9825C21.3546 15.566 21.0185 16.2047 20.7748 16.8805C20.5492 16.9917 20.3428 17.1382 20.1634 17.3145L19.2731 18.1917C19.1663 18.2962 19.0334 18.3701 18.8884 18.4058C18.7433 18.4414 18.5913 18.4376 18.4483 18.3946C18.8205 15.4603 18.0222 13.7908 17.9862 13.7175C17.8954 13.5312 17.7344 13.3886 17.5385 13.3211C17.3427 13.2535 17.128 13.2665 16.9417 13.3572C16.7554 13.4479 16.6128 13.609 16.5452 13.8048C16.4776 14.0007 16.4906 14.2154 16.5814 14.4017C16.5869 14.4135 17.0242 15.3699 16.9818 17.1165C16.5226 16.77 15.9545 16.5995 15.3804 16.6358C14.8063 16.6722 14.2642 16.9131 13.8525 17.3149L12.9621 18.1921C12.8059 18.3447 12.5962 18.4302 12.3778 18.4302C12.1594 18.4302 11.9496 18.3447 11.7934 18.1921L10.9031 17.3149C10.5609 16.9782 10.1248 16.7532 9.65207 16.6694C9.70002 15.2274 10.0643 14.4338 10.0767 14.4073C10.1646 14.2221 10.1763 14.0098 10.1091 13.8161C10.042 13.6225 9.9014 13.463 9.71771 13.372C9.53403 13.281 9.32195 13.2659 9.12721 13.3298C8.93246 13.3938 8.77066 13.5317 8.67668 13.7139C8.651 13.7653 8.09719 14.8994 8.08469 16.9162C7.88539 17.0226 7.70234 17.157 7.54113 17.3153L6.53157 18.3089C6.38653 18.451 6.19473 18.5353 5.99201 18.5463C5.78929 18.5572 5.58954 18.4939 5.4301 18.3682C5.25316 18.2286 5.05771 18.1141 4.84934 18.0282C4.41965 16.0262 4.90041 13.7287 5.52795 12.1826C5.88283 11.3084 6.31369 10.8146 6.80871 10.7145C7.55197 10.5639 8.45266 11.2706 8.73508 11.5536ZM3.36662 4.68764H5.65334L6.86633 9.13559C6.74596 9.14258 6.62621 9.15781 6.50793 9.1812C5.87824 9.3062 5.33215 9.65229 4.87317 10.2114L3.36662 4.68764ZM3.55529 19.5133C3.69792 19.4363 3.86006 19.4031 4.02147 19.4177C4.18289 19.4323 4.33642 19.4941 4.46291 19.5955C4.92149 19.9561 5.49572 20.1374 6.07825 20.1055C6.66078 20.0735 7.21174 19.8305 7.62815 19.4219L8.63733 18.4279C8.79354 18.2752 9.00329 18.1898 9.2217 18.1898C9.44012 18.1898 9.64986 18.2752 9.80608 18.4279L10.6964 19.305C11.1458 19.7441 11.7491 19.99 12.3774 19.99C13.0057 19.99 13.609 19.7441 14.0584 19.305L14.9487 18.4279C15.1049 18.2752 15.3146 18.1898 15.533 18.1898C15.7514 18.1898 15.9612 18.2752 16.1174 18.4279L17.0077 19.305C17.4571 19.7441 18.0604 19.99 18.6887 19.99C19.317 19.99 19.9203 19.7441 20.3697 19.305L21.2598 18.4279C21.416 18.2752 21.6257 18.1898 21.8442 18.1898C22.0626 18.1898 22.2723 18.2752 22.4285 18.4279L23.3189 19.305C23.7682 19.7441 24.3716 19.99 24.9998 19.99C25.6281 19.99 26.2314 19.7441 26.6808 19.305L27.5711 18.4279C27.7273 18.2752 27.9371 18.1898 28.1555 18.1898C28.3739 18.1898 28.5836 18.2752 28.7399 18.4279L29.6302 19.305C30.0796 19.7441 30.6829 19.99 31.3112 19.99C31.9394 19.99 32.5428 19.7441 32.9921 19.305L33.8824 18.4279C34.0387 18.2752 34.2484 18.1898 34.4668 18.1898C34.6852 18.1898 34.895 18.2752 35.0512 18.4279L35.9414 19.305C36.3908 19.7441 36.9941 19.99 37.6224 19.99C38.2507 19.99 38.8541 19.7441 39.3034 19.305L40.1938 18.4279C40.35 18.2752 40.5597 18.1898 40.7781 18.1898C40.9966 18.1898 41.2063 18.2752 41.3625 18.4279L42.3717 19.4221C42.7881 19.8307 43.3391 20.0737 43.9216 20.1057C44.5041 20.1376 45.0784 19.9563 45.5369 19.5956C45.6634 19.4943 45.817 19.4325 45.9784 19.4179C46.1398 19.4033 46.3019 19.4365 46.4446 19.5135C46.5732 19.5788 46.6815 19.6782 46.7574 19.8009C46.8333 19.9236 46.874 20.0648 46.875 20.2091L44.5508 30.2931C44.5344 30.3646 44.5281 30.4381 44.5321 30.5114L45.4753 47.6564H4.52473L5.4676 30.5118C5.47175 30.4384 5.46557 30.3648 5.44924 30.2931L3.12502 20.2091C3.12595 20.0648 3.16659 19.9236 3.24249 19.8008C3.31839 19.6781 3.42661 19.5786 3.55529 19.5133Z" fill="black"/>
<path d="M18.75 30.4688H31.25C31.4572 30.4688 31.6559 30.3864 31.8024 30.2399C31.9489 30.0934 32.0312 29.8947 32.0312 29.6875V25C32.0312 24.7928 31.9489 24.5941 31.8024 24.4476C31.6559 24.3011 31.4572 24.2188 31.25 24.2188H18.75C18.5428 24.2188 18.3441 24.3011 18.1976 24.4476C18.0511 24.5941 17.9688 24.7928 17.9688 25V29.6875C17.9688 29.8947 18.0511 30.0934 18.1976 30.2399C18.3441 30.3864 18.5428 30.4688 18.75 30.4688ZM19.5312 25.7812H30.4688V28.9062H19.5312V25.7812Z" fill="black"/>
</svg>
