<?xml version="1.0" encoding="UTF-8" standalone="no"?>
<!DOCTYPE svg PUBLIC "-//W3C//DTD SVG 1.1//EN" "http://www.w3.org/Graphics/SVG/1.1/DTD/svg11.dtd">
<svg xmlns="http://www.w3.org/2000/svg" version="1.1" viewBox="0 0 36 36">
<path fill="#000000" fill-opacity="0.996" d="
  M 7.13 6.42
  C 7.49 -1.75 18.31 -2.22 19.58 6.42
  Q 19.67 6.99 20.24 7.00
  L 25.35 7.01
  Q 26.00 7.01 26.00 7.66
  L 26.00 15.91
  Q 26.00 16.56 26.65 16.55
  L 34.73 16.48
  A 0.76 0.76 0.0 0 1 35.50 17.24
  L 35.50 32.75
  A 2.25 2.24 -0.0 0 1 33.25 34.99
  L 2.54 35.01
  A 1.97 1.97 0.0 0 1 0.56 33.04
  L 0.58 7.71
  Q 0.58 7.00 1.29 7.00
  L 6.52 7.00
  Q 7.10 7.00 7.13 6.42
  Z
  M 18.24 6.35
  C 17.41 0.07 9.45 -0.40 8.39 6.30
  A 0.61 0.60 4.8 0 0 8.99 7.00
  L 17.67 6.99
  A 0.57 0.57 0.0 0 0 18.24 6.35
  Z
  M 18.32 9.99
  L 17.89 8.83
  Q 17.68 8.25 17.06 8.25
  L 9.20 8.25
  Q 8.64 8.25 8.56 8.81
  L 8.41 9.95
  Q 8.28 10.90 7.60 10.23
  Q 7.04 9.68 6.98 8.93
  Q 6.92 8.25 6.24 8.25
  L 2.63 8.25
  Q 2.00 8.25 2.00 8.88
  L 2.00 32.72
  A 1.03 1.03 0.0 0 0 3.03 33.75
  L 10.29 33.75
  Q 10.82 33.75 10.82 33.22
  L 10.72 17.77
  Q 10.71 16.50 11.98 16.50
  L 24.00 16.50
  Q 24.56 16.50 24.56 15.94
  L 24.56 8.93
  Q 24.56 8.30 23.94 8.29
  L 20.14 8.23
  Q 19.50 8.22 19.50 8.86
  L 19.50 9.75
  Q 19.50 10.25 19.00 10.25
  Q 18.85 10.25 18.68 10.25
  Q 18.41 10.24 18.32 9.99
  Z
  M 34.2278 18.8008
  A 0.95 0.95 0.0 0 0 33.2761 17.8525
  L 13.1962 17.8875
  A 0.95 0.95 0.0 0 0 12.2478 18.8392
  L 12.2722 32.7992
  A 0.95 0.95 0.0 0 0 13.2239 33.7475
  L 33.3038 33.7125
  A 0.95 0.95 0.0 0 0 34.2522 32.7608
  L 34.2278 18.8008
  Z"
/>
<path fill="#000000" fill-opacity="0.996" d="
  M 29.39 20.57
  C 29.50 29.34 17.82 29.76 16.90 21.50
  Q 16.78 20.40 17.60 20.17
  A 0.65 0.64 -8.5 0 1 18.42 20.77
  C 18.61 28.17 28.07 27.57 28.11 20.77
  Q 28.12 19.79 28.95 20.01
  A 0.59 0.58 -83.6 0 1 29.39 20.57
  Z"
/>
</svg>
