<?xml version="1.0" encoding="UTF-8" standalone="no"?>
<!DOCTYPE svg PUBLIC "-//W3C//DTD SVG 1.1//EN" "http://www.w3.org/Graphics/SVG/1.1/DTD/svg11.dtd">
<svg xmlns="http://www.w3.org/2000/svg" version="1.1" viewBox="0 0 36 36">
<path fill="#010100" fill-opacity="0.996" d="
  M 3.69 19.94
  Q 10.44 12.66 22.29 1.36
  Q 22.65 1.02 23.15 1.00
  Q 25.48 0.92 26.48 2.90
  A 2.27 2.26 54.0 0 1 26.07 5.53
  Q 16.69 14.98 7.04 24.54
  Q 5.42 26.15 0.76 27.16
  Q 0.29 27.26 0.39 26.79
  Q 1.28 22.53 3.69 19.94
  Z
  M 25.18 5.20
  C 26.34 1.95 22.86 1.37 21.58 3.47
  Q 21.30 3.93 21.68 4.31
  L 23.06 5.68
  A 1.29 1.28 -57.8 0 0 25.18 5.20
  Z
  M 21.33 5.49
  Q 20.93 4.94 20.20 4.99
  Q 18.94 5.07 19.83 5.96
  L 21.69 7.81
  Q 22.52 8.64 22.52 7.47
  Q 22.51 6.79 22.00 6.23
  Q 21.37 5.55 21.33 5.49
  Z
  M 20.7278 9.3656
  A 0.71 0.71 0.0 0 0 20.7260 8.3615
  L 19.2102 6.8509
  A 0.71 0.71 0.0 0 0 18.2061 6.8527
  L 4.5122 20.5944
  A 0.71 0.71 0.0 0 0 4.5140 21.5985
  L 6.0298 23.1091
  A 0.71 0.71 0.0 0 0 7.0339 23.1073
  L 20.7278 9.3656
  Z
  M 3.32 22.54
  Q 2.45 23.66 2.21 25.05
  Q 2.08 25.77 2.75 25.47
  L 4.73 24.59
  Q 5.43 24.28 4.93 23.71
  L 3.91 22.53
  A 0.38 0.38 0.0 0 0 3.32 22.54
  Z"
/>
<path fill="#010100" fill-opacity="0.996" d="
  M 34.69 36.01
  L 1.69 36.00
  Q 1.74 34.89 3.45 33.19
  Q 18.80 17.81 34.09 2.54
  A 0.49 0.49 0.0 0 1 34.93 2.89
  L 34.69 36.01
  Z
  M 31.88 14.30
  Q 32.42 13.70 33.41 14.09
  Q 34.43 14.48 34.10 13.44
  L 33.59 11.80
  Q 33.40 11.17 32.81 11.48
  Q 31.63 12.11 30.35 11.44
  Q 29.01 10.73 30.53 10.63
  L 33.30 10.44
  A 0.51 0.51 0.0 0 0 33.78 9.95
  L 33.95 5.02
  A 0.29 0.29 0.0 0 0 33.46 4.80
  L 4.09 34.18
  A 0.36 0.36 0.0 0 0 4.35 34.79
  L 33.33 34.74
  Q 34.19 34.74 34.00 33.91
  L 33.81 33.10
  Q 33.67 32.50 33.06 32.50
  L 30.98 32.50
  Q 29.87 32.50 30.64 31.71
  Q 31.43 30.90 32.46 31.37
  Q 32.84 31.54 33.21 31.35
  Q 34.19 30.84 33.98 29.69
  Q 33.86 29.04 33.20 29.02
  L 31.89 28.99
  Q 31.29 28.97 31.58 28.46
  Q 31.89 27.91 33.68 27.65
  A 0.44 0.43 -9.1 0 0 34.05 27.15
  Q 33.72 24.75 31.21 25.55
  Q 30.99 25.62 30.84 25.46
  L 30.58 25.21
  Q 30.32 24.94 30.64 24.76
  Q 31.54 24.22 32.44 24.37
  Q 33.01 24.46 33.48 24.12
  Q 34.33 23.49 33.86 22.67
  Q 33.60 22.21 33.08 22.22
  L 32.10 22.22
  Q 31.07 22.22 31.71 21.42
  Q 32.19 20.81 32.98 21.02
  Q 33.61 21.19 33.86 20.58
  Q 34.29 19.52 33.35 18.75
  Q 32.94 18.42 32.45 18.63
  Q 31.50 19.06 30.72 18.38
  Q 29.73 17.53 31.04 17.48
  L 33.13 17.41
  Q 33.71 17.39 33.83 16.82
  L 33.98 16.09
  Q 34.11 15.48 33.50 15.36
  L 32.14 15.10
  Q 31.29 14.93 31.88 14.30
  Z"
/>
<path fill="#010100" fill-opacity="0.996" d="
  M 29.25 17.27
  L 29.25 29.57
  A 0.68 0.68 0.0 0 1 28.57 30.25
  L 16.27 30.25
  A 0.68 0.68 0.0 0 1 15.79 29.09
  L 28.09 16.79
  A 0.68 0.68 0.0 0 1 29.25 17.27
  Z
  M 28.04 19.36
  A 0.34 0.34 0.0 0 0 27.47 19.11
  L 18.11 28.40
  A 0.34 0.34 0.0 0 0 18.35 28.98
  L 27.67 29.01
  A 0.34 0.34 0.0 0 0 28.01 28.68
  L 28.04 19.36
  Z"
/>
</svg>
