<?xml version="1.0" encoding="UTF-8" standalone="no"?>
<!DOCTYPE svg PUBLIC "-//W3C//DTD SVG 1.1//EN" "http://www.w3.org/Graphics/SVG/1.1/DTD/svg11.dtd">
<svg xmlns="http://www.w3.org/2000/svg" version="1.1" viewBox="0 0 36 36">
<path fill="#010000" d="
  M 16.81 0.00
  L 19.06 0.00
  Q 25.38 1.19 27.38 6.99
  C 28.03 8.89 27.66 11.18 27.78 13.34
  Q 27.82 13.93 28.40 14.01
  C 30.35 14.30 31.23 15.15 31.24 17.21
  Q 31.28 25.05 31.23 32.81
  A 2.20 2.20 0.0 0 1 29.03 35.00
  L 7.22 35.00
  A 2.21 2.20 0.0 0 1 5.01 32.80
  Q 4.98 25.16 5.00 17.27
  C 5.00 15.24 5.68 14.14 7.71 13.99
  Q 8.28 13.94 8.26 13.37
  C 8.10 6.88 9.42 1.60 16.81 0.00
  Z
  M 11.66 13.34
  C 10.32 -1.32 26.80 1.55 24.37 12.50
  Q 24.27 12.95 24.49 13.36
  Q 25.03 14.35 26.01 13.95
  Q 26.47 13.76 26.56 13.27
  C 28.59 1.60 14.59 -3.87 9.98 6.77
  C 9.15 8.69 9.60 11.12 9.37 13.30
  Q 9.29 13.98 9.98 13.98
  L 11.07 13.98
  Q 11.72 13.98 11.66 13.34
  Z
  M 23.22 9.54
  C 23.00 3.72 15.78 2.87 13.36 7.45
  C 12.45 9.18 12.73 11.48 12.76 13.47
  Q 12.77 14.00 13.31 14.00
  L 22.91 13.99
  Q 23.56 13.99 23.50 13.34
  Q 23.29 11.36 23.22 9.54
  Z
  M 30.0142 16.3507
  A 1.08 1.08 0.0 0 0 28.9361 15.2689
  L 7.3362 15.2312
  A 1.08 1.08 0.0 0 0 6.2543 16.3093
  L 6.2258 32.6493
  A 1.08 1.08 0.0 0 0 7.3039 33.7311
  L 28.9038 33.7688
  A 1.08 1.08 0.0 0 0 29.9857 32.6907
  L 30.0142 16.3507
  Z"
/>
<path fill="#010000" d="
  M 15.75 24.88
  C 11.31 18.77 24.60 18.23 20.38 24.92
  Q 20.12 25.34 20.22 25.82
  L 20.77 28.38
  Q 20.94 29.18 20.12 29.19
  L 16.00 29.24
  Q 15.29 29.25 15.42 28.55
  L 15.96 25.84
  Q 16.06 25.32 15.75 24.88
  Z
  M 19.49 21.59
  C 16.84 20.30 14.99 22.75 17.00 24.64
  Q 17.42 25.04 17.28 25.60
  L 16.88 27.19
  Q 16.70 27.91 17.44 27.94
  L 18.85 28.00
  Q 19.61 28.04 19.33 27.33
  Q 18.48 25.18 19.90 23.40
  A 1.19 1.19 0.0 0 0 19.49 21.59
  Z"
/>
</svg>
