<?xml version="1.0" encoding="UTF-8" standalone="no"?>
<!DOCTYPE svg PUBLIC "-//W3C//DTD SVG 1.1//EN" "http://www.w3.org/Graphics/SVG/1.1/DTD/svg11.dtd">
<svg xmlns="http://www.w3.org/2000/svg" version="1.1" viewBox="0 0 36 36">
<path fill="#000000" fill-opacity="0.996" d="
  M 35.00 6.86
  A 2.13 2.13 0.0 0 1 32.87 8.99
  L 2.37 8.99
  A 2.13 2.13 0.0 0 1 0.24 6.86
  L 0.24 2.38
  A 2.13 2.13 0.0 0 1 2.37 0.25
  L 32.87 0.25
  A 2.13 2.13 0.0 0 1 35.00 2.38
  L 35.00 6.86
  Z
  M 33.6438 2.3881
  A 0.80 0.80 0.0 0 0 32.8452 1.5867
  L 2.3052 1.5334
  A 0.80 0.80 0.0 0 0 1.5038 2.3320
  L 1.4962 6.6719
  A 0.80 0.80 0.0 0 0 2.2948 7.4733
  L 32.8348 7.5266
  A 0.80 0.80 0.0 0 0 33.6362 6.7280
  L 33.6438 2.3881
  Z"
/>
<rect fill="#000000" fill-opacity="0.996" x="-7.84" y="-0.75" transform="translate(27.10,12.73) rotate(0.1)" width="15.68" height="1.50" rx="0.65"/>
<path fill="#000000" fill-opacity="0.996" d="
  M 16.2165 33.0461
  A 2.17 2.17 0.0 0 1 14.0503 35.2198
  L 2.4303 35.2401
  A 2.17 2.17 0.0 0 1 0.2565 33.0739
  L 0.2235 14.1739
  A 2.17 2.17 0.0 0 1 2.3897 12.0002
  L 14.0097 11.9799
  A 2.17 2.17 0.0 0 1 16.1835 14.1461
  L 16.2165 33.0461
  Z
  M 14.7560 14.3816
  A 1.07 1.07 0.0 0 0 13.6878 13.3097
  L 2.5879 13.2903
  A 1.07 1.07 0.0 0 0 1.5160 14.3585
  L 1.4840 32.6784
  A 1.07 1.07 0.0 0 0 2.5522 33.7503
  L 13.6521 33.7697
  A 1.07 1.07 0.0 0 0 14.7240 32.7015
  L 14.7560 14.3816
  Z"
/>
<rect fill="#000000" fill-opacity="0.996" x="19.12" y="16.25" width="15.90" height="1.50" rx="0.69"/>
<rect fill="#000000" fill-opacity="0.996" x="-7.92" y="-0.63" transform="translate(27.05,21.36) rotate(-0.1)" width="15.84" height="1.26" rx="0.61"/>
<rect fill="#000000" fill-opacity="0.996" x="19.05" y="25.00" width="15.96" height="1.50" rx="0.73"/>
<rect fill="#000000" fill-opacity="0.996" x="-7.80" y="-0.77" transform="translate(27.10,30.03) rotate(-0.3)" width="15.60" height="1.54" rx="0.32"/>
<rect fill="#000000" fill-opacity="0.996" x="-7.88" y="-0.75" transform="translate(27.13,34.50) rotate(0.1)" width="15.76" height="1.50" rx="0.60"/>
</svg>
