<svg width="92" height="13" viewBox="0 -8 92 13" fill="none" xmlns="http://www.w3.org/2000/svg">
<path d="M2.50651 0.173004V12.827H0V0.173004H2.50651Z" fill="#FF9900"/>
<path d="M14.6478 0.173004V12.827H12.4828L7.32508 4.86264H7.23825V12.827H4.73174V0.173004H6.93145L12.0487 8.13118H12.1529V0.173004H14.6478Z" fill="#FF9900"/>
<path d="M31.2777 4.60314H28.7422C28.6959 4.25301 28.6014 3.94201 28.4586 3.67015C28.3158 3.39417 28.1325 3.15938 27.9087 2.96578C27.6848 2.77218 27.4263 2.62389 27.133 2.52091C26.8435 2.41793 26.529 2.36645 26.1894 2.36645C25.5758 2.36645 25.0413 2.52915 24.5859 2.85456C24.1306 3.17586 23.7775 3.64544 23.5266 4.26331C23.2758 4.87706 23.1503 5.62262 23.1503 6.5C23.1503 7.40209 23.2758 8.16001 23.5266 8.77376C23.7813 9.38752 24.1364 9.85092 24.5917 10.164C25.0471 10.477 25.5739 10.6336 26.172 10.6336C26.5078 10.6336 26.8185 10.5862 27.104 10.4914C27.3935 10.3967 27.6501 10.2587 27.8739 10.0775C28.0978 9.89211 28.283 9.66762 28.4296 9.40399C28.5801 9.14037 28.6843 8.83967 28.7422 8.5019L31.2777 8.51426C31.2121 9.09506 31.0481 9.65526 30.7856 10.1949C30.5271 10.7304 30.1778 11.2102 29.7379 11.6345C29.3018 12.0547 28.7808 12.3883 28.1749 12.6355C27.5729 12.8785 26.8918 13 26.1315 13C25.0741 13 24.1286 12.7446 23.2951 12.2338C22.4653 11.7231 21.8093 10.9837 21.3269 10.0157C20.8484 9.04769 20.6091 7.87579 20.6091 6.5C20.6091 5.12009 20.8522 3.94613 21.3385 2.97814C21.8247 2.01014 22.4846 1.27281 23.3182 0.76616C24.1518 0.255387 25.0896 0 26.1315 0C26.8185 0 27.4552 0.102978 28.0418 0.308935C28.6322 0.514892 29.1552 0.815589 29.6105 1.21103C30.0659 1.60234 30.4364 2.08222 30.722 2.65067C31.0114 3.21911 31.1966 3.86993 31.2777 4.60314Z" fill="#FF9900"/>
<path d="M35.0586 12.827H32.3727L36.4653 0.173004H39.6954L43.7822 12.827H41.0962L38.1266 3.06464H38.034L35.0586 12.827ZM34.8908 7.85314H41.2352V9.94154H34.8908V7.85314Z" fill="#FF9900"/>
<path d="M55.2882 0.173004V12.827H53.1232L47.9655 4.86264H47.8786V12.827H45.3721V0.173004H47.5718L52.689 8.13118H52.7932V0.173004H55.2882Z" fill="#FF9900"/>
<path d="M59.5655 12.827H56.8795L60.9722 0.173004H64.2022L68.2891 12.827H65.6031L62.6335 3.06464H62.5409L59.5655 12.827ZM59.3976 7.85314H65.742V9.94154H59.3976V7.85314Z" fill="#FF9900"/>
<path d="M74.0816 12.827H69.879V0.173004H74.1163C75.3088 0.173004 76.3353 0.426331 77.1959 0.932985C78.0565 1.43552 78.7183 2.15843 79.1814 3.10171C79.6484 4.04499 79.8819 5.17364 79.8819 6.48764C79.8819 7.80577 79.6484 8.93853 79.1814 9.88593C78.7183 10.8333 78.0526 11.5604 77.1843 12.067C76.3199 12.5737 75.2856 12.827 74.0816 12.827ZM72.3855 10.5347H73.9774C74.7183 10.5347 75.3416 10.3946 75.8471 10.1145C76.3566 9.83032 76.7386 9.39163 76.9933 8.79848C77.2519 8.2012 77.3811 7.43093 77.3811 6.48764C77.3811 5.5526 77.2519 4.7885 76.9933 4.19534C76.7386 3.60219 76.3585 3.16556 75.8529 2.88546C75.3474 2.60536 74.7241 2.4653 73.9832 2.4653H72.3855V10.5347Z" fill="#FF9900"/>
<path d="M83.2764 12.827H80.5905L84.6831 0.173004H87.9132L92 12.827H89.314L86.3444 3.06464H86.2518L83.2764 12.827ZM83.1085 7.85314H89.453V9.94154H83.1085V7.85314Z" fill="#FF9900"/>
</svg>
