<svg width="267" height="53" viewBox="0 0 267 53" fill="none" xmlns="http://www.w3.org/2000/svg">
<path d="M180.214 0.630676L170.394 3.83536V47.5564H180.214V0.630676Z" fill="#fff"/>
<path d="M240.588 29.0199L225.924 0.630676H235.839L245.478 19.211L256.691 0.630676H266.514L250.407 29.0199V47.5564H240.588V29.0199Z" fill="#fff"/>
<path d="M188.923 10.4354V0.630676H220.207V10.4354H188.923Z" fill="#fff"/>
<path d="M188.923 47.5565V19.183H219.718V29.0087H198.692V47.5565H188.923Z" fill="#fff"/>
<path d="M77.9886 0.630676L60.8425 47.5564H70.6142L82.8661 15.3005L95.0699 47.5564H104.941L87.6909 0.630676H77.9886Z" fill="#fff"/>
<path d="M112.798 47.5564L97.592 0.630676H107.454L117.7 32.9047L126.991 0.630676H136.744L145.084 32.8734L155.861 0.630676H165.636L149.963 47.5564H140.169L131.867 15.2735L122.572 47.5564H112.798Z" fill="#fff"/>
<path d="M15.7631 47.5564L0.557617 0.630676H10.4198L20.6656 32.9047L29.9564 0.630676H39.7095L48.0495 32.8734L58.8269 0.630676H68.6017L52.9284 47.5564H43.1348L34.8328 15.2735L25.5375 47.5564H15.7631Z" fill="#fff"/>
<path d="M82.9276 52.1357L75.5256 37.0034H90.2581L82.9276 52.1357Z" fill="#fff"/>
</svg>
