<svg width="278" height="67" viewBox="0 0 278 67" fill="none" xmlns="http://www.w3.org/2000/svg">
  <path d="M0.621094 4.6582C0.621094 2.44922 2.41211 0.658203 4.62109 0.658203H48.498C50.707 0.658203 52.498 2.44922 52.498 4.6582V19.625C52.498 21.834 50.707 23.625 48.498 23.625H23.5879V31.1367H34.5879C36.7969 31.1367 38.5879 32.9277 38.5879 35.1367V50.1035C38.5879 52.3125 36.7969 54.1035 34.5879 54.1035H23.5879V62.6582C23.5879 64.8672 21.7969 66.6582 19.5879 66.6582H4.62109C2.41211 66.6582 0.621094 64.8672 0.621094 62.6582V4.6582Z" fill="#FF9900"/>
  <path d="M129.275 33.6582C129.275 51.8828 114.501 66.6582 96.2754 66.6582C78.0498 66.6582 63.2754 51.8828 63.2754 33.6582C63.2754 15.4336 78.0498 0.658203 96.2754 0.658203C114.501 0.658203 129.275 15.4336 129.275 33.6582Z" fill="#FF9900"/>
  <path d="M206.053 33.6582C206.053 51.8828 191.278 66.6582 173.053 66.6582C154.827 66.6582 140.053 51.8828 140.053 33.6582C140.053 15.4336 154.827 0.658203 173.053 0.658203C191.278 0.658203 206.053 15.4336 206.053 33.6582Z" fill="#FF9900"/>
  <path fill-rule="evenodd" clip-rule="evenodd" d="M244.709 66.6582C262.935 66.6582 277.709 51.8828 277.709 33.6582C277.709 15.4336 262.935 0.658203 244.709 0.658203H220.83C219.491 0.658203 218.306 1.31641 217.579 2.32812C217.107 2.98438 216.83 3.78906 216.83 4.6582V62.6582C216.83 64.8672 218.621 66.6582 220.83 66.6582H244.709ZM235.863 19.6914V47.625H244.709C252.423 47.625 258.676 41.3711 258.676 33.6582C258.676 25.9453 252.423 19.6914 244.709 19.6914H235.863Z" fill="#FF9900"/>
</svg>
