<svg width="196" height="191" viewBox="0 0 196 191" fill="none" xmlns="http://www.w3.org/2000/svg">
<path d="M59.7889 190.782L20.3711 69.1348H43.2044L65.473 152.8L89.5579 69.1348L116.792 69.1348L136.071 152.719L166.351 69.1348L194.032 69.1348L153.401 190.782H124.891L97.907 107.094L76.9319 190.782H59.7889Z" fill="#404040"/>
<path d="M42.8826 190.782L3.46484 69.1348H26.2981L48.5668 152.8L72.6516 69.1348L99.8859 69.1348L119.165 152.719L149.445 69.1348L177.126 69.1348L136.495 190.782H107.985L81.0008 107.094L60.0257 190.782H42.8826Z" fill="#B8D965"/>
<path d="M172.376 61.2272C169.788 11.3598 38.8014 -23.9495 7.48437 61.2272H0.356445C34.5668 -37.2502 195.571 1.00754 195.571 61.2271L172.376 61.2272Z" fill="#404040"/>
</svg>
